<?xml version="1.0" encoding="UTF-8" standalone="no"?>
<!DOCTYPE svg PUBLIC "-//W3C//DTD SVG 1.1//EN" "http://www.w3.org/Graphics/SVG/1.1/DTD/svg11.dtd">
<svg width="100%" height="100%" viewBox="0 0 1123 794" version="1.1" xmlns="http://www.w3.org/2000/svg" xmlns:xlink="http://www.w3.org/1999/xlink" xml:space="preserve" xmlns:serif="http://www.serif.com/" style="fill-rule:evenodd;clip-rule:evenodd;stroke-linecap:round;stroke-linejoin:round;stroke-miterlimit:1.5;">
    <g>
        <g transform="matrix(3.83987,0,0,3.87767,362.774,237.554)">
            <path d="M12,39.5L20.8,26L20.8,39.5L32.9,39.5L53.8,7.3L57.1,7.3L52.4,0.1L36.9,7.3L41.7,7.3L30.9,23.9L30.9,10.5L18.8,10.5L10.1,23.9L10.1,10.5L0,10.5L0,39.5L12,39.5Z" style="fill-rule:nonzero;"/>
        </g>
        <g>
            <g>
                <g transform="matrix(1.52804,0,0,1.28836,71.1194,-27.3564)">
                    <ellipse cx="203.55" cy="252.654" rx="6.184" ry="7.334" style="fill:none;stroke:white;stroke-width:0.94px;"/>
                </g>
                <g transform="matrix(1.52804,0,0,1.28836,214.345,-27.3564)">
                    <ellipse cx="203.55" cy="252.654" rx="6.184" ry="7.334" style="fill:none;stroke:white;stroke-width:0.94px;"/>
                </g>
                <g transform="matrix(1.52804,0,0,1.28836,78.8791,45.329)">
                    <ellipse cx="203.55" cy="252.654" rx="6.184" ry="7.334" style="fill:none;stroke:white;stroke-width:0.94px;"/>
                </g>
                <g transform="matrix(1.52804,0,0,1.28836,158.736,45.329)">
                    <ellipse cx="203.55" cy="252.654" rx="6.184" ry="7.334" style="fill:none;stroke:white;stroke-width:0.94px;"/>
                </g>
            </g>
            <g>
                <g transform="matrix(6.12323e-17,-1,1,6.12323e-17,93.4797,492.269)">
                    <g transform="matrix(0.506647,0,0,0.73471,90.1375,59.0431)">
                        <rect x="185.829" y="210.175" width="5.222" height="40.125" style="fill:none;stroke:black;stroke-width:1.2px;"/>
                    </g>
                    <g transform="matrix(0.506647,0,0,0.73471,107.15,59.0431)">
                        <rect x="185.829" y="210.175" width="5.222" height="40.125" style="fill:none;stroke:black;stroke-width:1.2px;"/>
                    </g>
                    <g transform="matrix(0.971294,0,0,1.00793,5.24674,-1.71892)">
                        <rect x="182.777" y="216.862" width="23.347" height="22.499" style="fill:white;stroke:black;stroke-width:0.76px;"/>
                    </g>
                    <g transform="matrix(1.10193,0,0,0.897436,30.3308,16.791)">
                        <ellipse cx="148.635" cy="235.571" rx="6.002" ry="7.37" style="fill:white;stroke:black;stroke-width:0.75px;"/>
                    </g>
                </g>
                <g transform="matrix(6.12323e-17,-1,1,6.12323e-17,102.929,564.955)">
                    <g transform="matrix(0.506647,0,0,0.73471,90.1375,59.0431)">
                        <rect x="185.829" y="210.175" width="5.222" height="40.125" style="fill:none;stroke:black;stroke-width:1.2px;"/>
                    </g>
                    <g transform="matrix(0.506647,0,0,0.73471,107.15,59.0431)">
                        <rect x="185.829" y="210.175" width="5.222" height="40.125" style="fill:none;stroke:black;stroke-width:1.2px;"/>
                    </g>
                    <g transform="matrix(0.971294,0,0,1.00793,5.24674,-1.71892)">
                        <rect x="182.777" y="216.862" width="23.347" height="22.499" style="fill:white;stroke:black;stroke-width:0.76px;"/>
                    </g>
                    <g transform="matrix(1.10193,0,0,0.897436,30.3308,16.791)">
                        <ellipse cx="148.635" cy="235.571" rx="6.002" ry="7.37" style="fill:white;stroke:black;stroke-width:0.75px;"/>
                    </g>
                </g>
                <g transform="matrix(6.12323e-17,-1,1,6.12323e-17,302.034,564.955)">
                    <g transform="matrix(0.506647,0,0,0.73471,90.1375,59.0431)">
                        <rect x="185.829" y="210.175" width="5.222" height="40.125" style="fill:none;stroke:black;stroke-width:1.2px;"/>
                    </g>
                    <g transform="matrix(0.506647,0,0,0.73471,107.15,59.0431)">
                        <rect x="185.829" y="210.175" width="5.222" height="40.125" style="fill:none;stroke:black;stroke-width:1.2px;"/>
                    </g>
                    <g transform="matrix(0.971294,0,0,1.00793,5.24674,-1.71892)">
                        <rect x="182.777" y="216.862" width="23.347" height="22.499" style="fill:white;stroke:black;stroke-width:0.76px;"/>
                    </g>
                    <g transform="matrix(1.10193,0,0,0.897436,30.3308,16.791)">
                        <ellipse cx="148.635" cy="235.571" rx="6.002" ry="7.37" style="fill:white;stroke:black;stroke-width:0.75px;"/>
                    </g>
                </g>
                <g transform="matrix(6.12323e-17,-1,1,6.12323e-17,357.669,492.269)">
                    <g transform="matrix(0.506647,0,0,0.73471,90.1375,59.0431)">
                        <rect x="185.829" y="210.175" width="5.222" height="40.125" style="fill:none;stroke:black;stroke-width:1.2px;"/>
                    </g>
                    <g transform="matrix(0.506647,0,0,0.73471,107.15,59.0431)">
                        <rect x="185.829" y="210.175" width="5.222" height="40.125" style="fill:none;stroke:black;stroke-width:1.2px;"/>
                    </g>
                    <g transform="matrix(0.971294,0,0,1.00793,5.24674,-1.71892)">
                        <rect x="182.777" y="216.862" width="23.347" height="22.499" style="fill:white;stroke:black;stroke-width:0.76px;"/>
                    </g>
                    <g transform="matrix(1.10193,0,0,0.897436,30.3308,16.791)">
                        <ellipse cx="148.635" cy="235.571" rx="6.002" ry="7.37" style="fill:white;stroke:black;stroke-width:0.75px;"/>
                    </g>
                </g>
            </g>
        </g>
        <g transform="matrix(0.867177,0,0,0.867177,100.345,101.982)">
            <g transform="matrix(0.678017,0,0,0.678017,525.725,355.235)">
                <path d="M90.9,23.4L90.9,26.6L95.3,26.6L95.3,29.4L86.5,29.4L86.5,20.6L105.4,20.6L105.4,10.5L80.1,10.5C78,10.5 76.3,12.2 76.3,14.3L76.3,35.8C76.3,37.9 78,39.6 80.1,39.6L101.6,39.6C103.7,39.6 105.4,37.9 105.4,35.8L105.4,23.4L90.9,23.4ZM134.2,10.5L112.7,10.5C110.6,10.5 108.9,12.2 108.9,14.3L108.9,35.8C108.9,37.9 110.6,39.6 112.7,39.6L134.2,39.6C136.3,39.6 138,37.9 138,35.8L138,14.2C138,12.2 136.3,10.5 134.2,10.5M127.9,29.4L119.1,29.4L119.1,20.6L127.9,20.6L127.9,29.4ZM55.9,10.5L34.9,42.7L31.3,42.7L36,49.9L51.5,42.7L47,42.7L52.3,34.5L62.7,34.5L62.7,39.6L72.8,39.6L72.8,10.6L55.9,10.6L55.9,10.5ZM55.6,29.4L62.7,18.4L62.7,29.4L55.6,29.4ZM12,39.5L20.8,26L20.8,39.5L32.9,39.5L53.8,7.3L57.1,7.3L52.4,0.1L36.9,7.3L41.7,7.3L30.9,23.9L30.9,10.5L18.8,10.5L10.1,23.9L10.1,10.5L0,10.5L0,39.5L12,39.5Z" style="fill-rule:nonzero;"/>
            </g>
            <g transform="matrix(1,0,0,1,134.291,2)">
                <g transform="matrix(16,0,0,16,271.888,379.724)">
                    <path d="M0.026,-0L0.026,-0.075L0.078,-0.083L0.313,-0.711L0.432,-0.711L0.665,-0.083L0.717,-0.075L0.717,-0L0.491,-0L0.491,-0.075L0.542,-0.084L0.504,-0.196L0.239,-0.196L0.201,-0.084L0.252,-0.075L0.252,-0L0.026,-0ZM0.271,-0.291L0.472,-0.291L0.38,-0.554L0.373,-0.573L0.37,-0.573L0.364,-0.553L0.271,-0.291Z" style="fill-rule:nonzero;"/>
                </g>
                <g transform="matrix(16,0,0,16,283.309,379.724)">
                    <path d="M0.261,0.01C0.204,0.01 0.16,-0.008 0.128,-0.044C0.096,-0.08 0.08,-0.136 0.08,-0.211L0.08,-0.438L0.021,-0.453L0.021,-0.528L0.203,-0.528L0.203,-0.21C0.203,-0.165 0.211,-0.133 0.225,-0.115C0.24,-0.096 0.262,-0.087 0.293,-0.087C0.319,-0.087 0.342,-0.092 0.361,-0.103C0.379,-0.113 0.394,-0.128 0.405,-0.148L0.405,-0.438L0.339,-0.453L0.339,-0.528L0.528,-0.528L0.528,-0.09L0.591,-0.075L0.591,-0L0.419,-0L0.411,-0.072C0.395,-0.045 0.373,-0.025 0.348,-0.011C0.322,0.003 0.293,0.01 0.261,0.01Z" style="fill-rule:nonzero;"/>
                </g>
                <g transform="matrix(16,0,0,16,293.036,379.724)">
                    <path d="M0.254,0.01C0.216,0.01 0.181,0.007 0.149,-0.001C0.116,-0.008 0.083,-0.019 0.05,-0.033L0.049,-0.173L0.137,-0.173L0.156,-0.097C0.17,-0.09 0.184,-0.086 0.199,-0.082C0.214,-0.079 0.23,-0.077 0.249,-0.077C0.284,-0.077 0.308,-0.084 0.323,-0.096C0.338,-0.108 0.345,-0.123 0.345,-0.142C0.345,-0.159 0.337,-0.174 0.322,-0.187C0.307,-0.199 0.278,-0.21 0.235,-0.219C0.172,-0.233 0.126,-0.253 0.096,-0.279C0.066,-0.305 0.051,-0.339 0.051,-0.381C0.051,-0.41 0.059,-0.437 0.074,-0.46C0.09,-0.484 0.113,-0.502 0.143,-0.516C0.173,-0.531 0.21,-0.538 0.254,-0.538C0.294,-0.538 0.329,-0.533 0.361,-0.525C0.392,-0.517 0.418,-0.506 0.44,-0.492L0.443,-0.358L0.356,-0.358L0.34,-0.428C0.33,-0.435 0.319,-0.44 0.305,-0.444C0.292,-0.448 0.276,-0.45 0.259,-0.45C0.232,-0.45 0.211,-0.444 0.195,-0.432C0.18,-0.421 0.172,-0.406 0.172,-0.388C0.172,-0.377 0.174,-0.368 0.179,-0.359C0.184,-0.351 0.194,-0.343 0.209,-0.336C0.223,-0.329 0.244,-0.322 0.272,-0.316C0.341,-0.3 0.39,-0.279 0.42,-0.253C0.449,-0.228 0.464,-0.194 0.464,-0.151C0.464,-0.104 0.447,-0.065 0.412,-0.035C0.378,-0.005 0.325,0.01 0.254,0.01Z" style="fill-rule:nonzero;"/>
                </g>
                <g transform="matrix(16,0,0,16,301.02,379.724)">
                    <path d="M0.33,0.01C0.297,0.01 0.268,0.004 0.244,-0.009C0.22,-0.022 0.2,-0.041 0.184,-0.066L0.174,-0L0.068,-0L0.068,-0.672L-0.01,-0.686L-0.01,-0.762L0.191,-0.762L0.191,-0.469C0.206,-0.492 0.226,-0.509 0.249,-0.52C0.273,-0.532 0.3,-0.538 0.331,-0.538C0.374,-0.538 0.41,-0.526 0.441,-0.503C0.471,-0.48 0.494,-0.447 0.51,-0.405C0.526,-0.363 0.534,-0.314 0.534,-0.258L0.534,-0.247C0.534,-0.196 0.526,-0.15 0.51,-0.112C0.494,-0.073 0.471,-0.043 0.44,-0.022C0.41,-0 0.373,0.01 0.33,0.01ZM0.295,-0.087C0.335,-0.087 0.365,-0.101 0.383,-0.13C0.402,-0.158 0.411,-0.197 0.411,-0.247L0.411,-0.258C0.411,-0.295 0.407,-0.327 0.398,-0.354C0.39,-0.382 0.378,-0.403 0.361,-0.418C0.344,-0.433 0.322,-0.441 0.295,-0.441C0.271,-0.441 0.25,-0.435 0.232,-0.423C0.215,-0.411 0.201,-0.395 0.191,-0.375L0.191,-0.149C0.201,-0.13 0.215,-0.114 0.233,-0.103C0.25,-0.092 0.271,-0.087 0.295,-0.087Z" style="fill-rule:nonzero;"/>
                </g>
                <g transform="matrix(16,0,0,16,309.966,379.724)">
                    <path d="M0.029,-0L0.029,-0.075L0.103,-0.09L0.103,-0.438L0.025,-0.453L0.025,-0.528L0.226,-0.528L0.226,-0.09L0.298,-0.075L0.298,-0L0.029,-0ZM0.098,-0.648L0.098,-0.762L0.226,-0.762L0.226,-0.648L0.098,-0.648Z" style="fill-rule:nonzero;"/>
                </g>
                <g transform="matrix(16,0,0,16,315.059,379.724)">
                    <path d="M0.026,-0L0.026,-0.075L0.1,-0.09L0.1,-0.672L0.022,-0.686L0.022,-0.762L0.223,-0.762L0.223,-0.09L0.296,-0.075L0.296,-0L0.026,-0Z" style="fill-rule:nonzero;"/>
                </g>
                <g transform="matrix(16,0,0,16,320.083,379.724)">
                    <path d="M0.238,0.01C0.196,0.01 0.159,-0 0.129,-0.022C0.098,-0.043 0.075,-0.074 0.059,-0.112C0.043,-0.151 0.035,-0.196 0.035,-0.247L0.035,-0.258C0.035,-0.314 0.043,-0.363 0.059,-0.405C0.075,-0.447 0.099,-0.48 0.129,-0.503C0.159,-0.526 0.196,-0.538 0.238,-0.538C0.268,-0.538 0.294,-0.532 0.317,-0.521C0.34,-0.509 0.359,-0.493 0.376,-0.471L0.376,-0.672L0.298,-0.686L0.298,-0.762L0.499,-0.762L0.499,-0.09L0.572,-0.075L0.572,-0L0.392,-0L0.382,-0.064C0.366,-0.04 0.345,-0.021 0.322,-0.009C0.298,0.004 0.27,0.01 0.238,0.01ZM0.273,-0.087C0.296,-0.087 0.317,-0.092 0.334,-0.102C0.351,-0.113 0.365,-0.128 0.376,-0.147L0.376,-0.38C0.365,-0.399 0.351,-0.414 0.334,-0.425C0.317,-0.436 0.297,-0.441 0.274,-0.441C0.247,-0.441 0.225,-0.433 0.208,-0.418C0.191,-0.402 0.178,-0.381 0.17,-0.353C0.162,-0.326 0.158,-0.294 0.158,-0.258L0.158,-0.247C0.158,-0.198 0.167,-0.159 0.185,-0.13C0.204,-0.101 0.233,-0.087 0.273,-0.087Z" style="fill-rule:nonzero;"/>
                </g>
                <g transform="matrix(16,0,0,16,329.598,379.724)">
                    <path d="M0.261,0.01C0.204,0.01 0.16,-0.008 0.128,-0.044C0.096,-0.08 0.08,-0.136 0.08,-0.211L0.08,-0.438L0.021,-0.453L0.021,-0.528L0.203,-0.528L0.203,-0.21C0.203,-0.165 0.211,-0.133 0.225,-0.115C0.24,-0.096 0.262,-0.087 0.293,-0.087C0.319,-0.087 0.342,-0.092 0.361,-0.103C0.379,-0.113 0.394,-0.128 0.405,-0.148L0.405,-0.438L0.339,-0.453L0.339,-0.528L0.528,-0.528L0.528,-0.09L0.591,-0.075L0.591,-0L0.419,-0L0.411,-0.072C0.395,-0.045 0.373,-0.025 0.348,-0.011C0.322,0.003 0.293,0.01 0.261,0.01Z" style="fill-rule:nonzero;"/>
                </g>
                <g transform="matrix(16,0,0,16,339.325,379.724)">
                    <path d="M0.03,-0L0.03,-0.075L0.103,-0.09L0.103,-0.438L0.026,-0.453L0.026,-0.528L0.216,-0.528L0.223,-0.451C0.24,-0.479 0.262,-0.5 0.288,-0.515C0.314,-0.53 0.344,-0.538 0.378,-0.538C0.432,-0.538 0.474,-0.521 0.505,-0.488C0.535,-0.455 0.55,-0.402 0.55,-0.332L0.55,-0.09L0.623,-0.075L0.623,-0L0.358,-0L0.358,-0.075L0.427,-0.09L0.427,-0.33C0.427,-0.371 0.419,-0.399 0.403,-0.416C0.387,-0.433 0.363,-0.441 0.331,-0.441C0.308,-0.441 0.287,-0.436 0.269,-0.425C0.252,-0.414 0.237,-0.4 0.226,-0.381L0.226,-0.09L0.293,-0.075L0.293,-0L0.03,-0Z" style="fill-rule:nonzero;"/>
                </g>
                <g transform="matrix(16,0,0,16,349.739,379.724)">
                    <path d="M0.266,0.213C0.239,0.213 0.21,0.21 0.179,0.203C0.147,0.196 0.119,0.186 0.095,0.174L0.121,0.084C0.142,0.093 0.164,0.101 0.189,0.107C0.214,0.113 0.238,0.116 0.261,0.116C0.301,0.116 0.33,0.105 0.349,0.082C0.368,0.06 0.377,0.028 0.377,-0.012L0.377,-0.053C0.361,-0.033 0.342,-0.017 0.319,-0.006C0.297,0.005 0.271,0.01 0.242,0.01C0.199,0.01 0.162,-0 0.131,-0.022C0.1,-0.043 0.076,-0.074 0.06,-0.112C0.043,-0.151 0.035,-0.196 0.035,-0.247L0.035,-0.258C0.035,-0.314 0.043,-0.363 0.06,-0.405C0.076,-0.447 0.1,-0.48 0.13,-0.503C0.161,-0.526 0.198,-0.538 0.241,-0.538C0.273,-0.538 0.301,-0.532 0.325,-0.518C0.349,-0.505 0.369,-0.486 0.385,-0.462L0.395,-0.528L0.501,-0.528L0.501,-0.012C0.501,0.034 0.491,0.074 0.473,0.108C0.454,0.141 0.427,0.167 0.392,0.186C0.357,0.204 0.315,0.213 0.266,0.213ZM0.275,-0.087C0.299,-0.087 0.319,-0.092 0.336,-0.102C0.353,-0.112 0.367,-0.127 0.377,-0.146L0.377,-0.381C0.367,-0.4 0.353,-0.414 0.336,-0.425C0.319,-0.436 0.299,-0.441 0.276,-0.441C0.249,-0.441 0.227,-0.433 0.209,-0.418C0.192,-0.402 0.179,-0.381 0.171,-0.353C0.162,-0.326 0.158,-0.294 0.158,-0.258L0.158,-0.247C0.158,-0.198 0.167,-0.159 0.186,-0.13C0.205,-0.101 0.235,-0.087 0.275,-0.087ZM0.484,-0.436L0.432,-0.528L0.564,-0.528L0.564,-0.453L0.484,-0.436Z" style="fill-rule:nonzero;"/>
                </g>
                <g transform="matrix(16,0,0,16,362.755,379.724)">
                    <path d="M0.33,0.01C0.297,0.01 0.268,0.004 0.244,-0.009C0.22,-0.022 0.2,-0.041 0.184,-0.066L0.174,-0L0.068,-0L0.068,-0.672L-0.01,-0.686L-0.01,-0.762L0.191,-0.762L0.191,-0.469C0.206,-0.492 0.226,-0.509 0.249,-0.52C0.273,-0.532 0.3,-0.538 0.331,-0.538C0.374,-0.538 0.41,-0.526 0.441,-0.503C0.471,-0.48 0.494,-0.447 0.51,-0.405C0.526,-0.363 0.534,-0.314 0.534,-0.258L0.534,-0.247C0.534,-0.196 0.526,-0.15 0.51,-0.112C0.494,-0.073 0.471,-0.043 0.44,-0.022C0.41,-0 0.373,0.01 0.33,0.01ZM0.295,-0.087C0.335,-0.087 0.365,-0.101 0.383,-0.13C0.402,-0.158 0.411,-0.197 0.411,-0.247L0.411,-0.258C0.411,-0.295 0.407,-0.327 0.398,-0.354C0.39,-0.382 0.378,-0.403 0.361,-0.418C0.344,-0.433 0.322,-0.441 0.295,-0.441C0.271,-0.441 0.25,-0.435 0.232,-0.423C0.215,-0.411 0.201,-0.395 0.191,-0.375L0.191,-0.149C0.201,-0.13 0.215,-0.114 0.233,-0.103C0.25,-0.092 0.271,-0.087 0.295,-0.087Z" style="fill-rule:nonzero;"/>
                </g>
                <g transform="matrix(16,0,0,16,372.013,379.724)">
                    <path d="M0.281,0.01C0.231,0.01 0.188,-0.001 0.151,-0.023C0.114,-0.045 0.085,-0.076 0.065,-0.116C0.044,-0.155 0.034,-0.2 0.034,-0.251L0.034,-0.271C0.034,-0.323 0.044,-0.369 0.064,-0.409C0.084,-0.449 0.112,-0.48 0.147,-0.503C0.182,-0.527 0.222,-0.538 0.267,-0.538C0.315,-0.538 0.355,-0.529 0.387,-0.509C0.42,-0.49 0.444,-0.463 0.461,-0.428C0.478,-0.392 0.486,-0.35 0.486,-0.3L0.486,-0.23L0.162,-0.23L0.161,-0.227C0.162,-0.2 0.168,-0.175 0.178,-0.154C0.188,-0.132 0.203,-0.115 0.222,-0.103C0.241,-0.091 0.264,-0.085 0.291,-0.085C0.32,-0.085 0.346,-0.089 0.37,-0.096C0.393,-0.104 0.415,-0.115 0.435,-0.13L0.473,-0.052C0.452,-0.035 0.426,-0.02 0.394,-0.008C0.362,0.004 0.324,0.01 0.281,0.01ZM0.164,-0.316L0.368,-0.316L0.368,-0.329C0.368,-0.352 0.365,-0.372 0.358,-0.39C0.35,-0.407 0.34,-0.421 0.325,-0.431C0.31,-0.44 0.292,-0.445 0.269,-0.445C0.249,-0.445 0.231,-0.44 0.216,-0.429C0.201,-0.418 0.189,-0.403 0.18,-0.384C0.171,-0.365 0.165,-0.343 0.162,-0.319L0.164,-0.316Z" style="fill-rule:nonzero;"/>
                </g>
                <g transform="matrix(16,0,0,16,380.286,379.724)">
                    <path d="M0.029,-0L0.029,-0.075L0.103,-0.09L0.103,-0.438L0.025,-0.453L0.025,-0.528L0.226,-0.528L0.226,-0.09L0.298,-0.075L0.298,-0L0.029,-0ZM0.098,-0.648L0.098,-0.762L0.226,-0.762L0.226,-0.648L0.098,-0.648Z" style="fill-rule:nonzero;"/>
                </g>
            </g>
        </g>
    </g>
    <g id="Edge-Cuts" serif:id="Edge Cuts">
        <g transform="matrix(0.867177,0,0,0.901366,126.578,106.581)">
            <path d="M638.551,137.228C638.551,111.941 617.212,91.412 590.929,91.412L163.162,91.412C136.879,91.412 115.54,111.941 115.54,137.228L115.54,351.035C115.54,376.321 136.879,396.85 163.162,396.85L590.929,396.85C617.212,396.85 638.551,376.321 638.551,351.035L638.551,137.228Z" style="fill:none;stroke:black;stroke-width:1.28px;"/>
        </g>
        <g transform="matrix(1,0,0,1,49.7058,70.8167)">
            <path d="M391.037,138.949C393.264,138.949 395.319,137.754 396.42,135.818C397.835,133.175 400.63,131.395 403.838,131.395C407.04,131.395 409.831,133.169 411.282,135.787C412.385,137.719 414.439,138.911 416.663,138.911C419.875,138.949 423.68,138.949 423.68,138.949C427.33,138.949 430.294,141.913 430.294,145.564C430.294,149.214 427.33,152.178 423.68,152.178L383.995,152.178C380.345,152.178 377.381,149.214 377.381,145.564C377.381,141.913 380.345,138.949 383.995,138.949L391.037,138.949Z" style="fill:none;stroke:black;stroke-width:1.13px;"/>
        </g>
    </g>
</svg>
